<svg xmlns="http://www.w3.org/2000/svg" xmlns:xlink="http://www.w3.org/1999/xlink" contentStyleType="text/css" data-diagram-type="DESCRIPTION" height="1013px" preserveAspectRatio="none" style="width:2026px;height:1013px;background:#FFFFFF;" version="1.1" viewBox="0 0 2026 1013" width="2026px" zoomAndPan="magnify"><defs/><g><!--cluster PKG1--><g class="cluster" data-entity="PKG1" data-source-line="25" data-uid="ent0006" id="cluster_PKG1"><rect fill="#E6E6FA" height="394.01" rx="2.5" ry="2.5" style="stroke:#181818;stroke-width:1;" width="339" x="451" y="149.09"/><text fill="#000000" font-family="sans-serif" font-size="14" font-style="italic" lengthAdjust="spacing" textLength="99.3877" x="570.8062" y="164.0851">&#171;Maldiciones&#187;</text><text fill="#000000" font-family="sans-serif" font-size="14" font-weight="bold" lengthAdjust="spacing" textLength="183.1689" x="528.9155" y="180.382">Gesti&#243;n de Maldiciones</text></g><!--cluster PKG2--><g class="cluster" data-entity="PKG2" data-source-line="35" data-uid="ent0013" id="cluster_PKG2"><rect fill="#D0F0C0" height="393.21" rx="2.5" ry="2.5" style="stroke:#181818;stroke-width:1;" width="279" x="1415" y="149.62"/><text fill="#000000" font-family="sans-serif" font-size="14" font-style="italic" lengthAdjust="spacing" textLength="77.6289" x="1515.6855" y="164.6151">&#171;Misiones&#187;</text><text fill="#000000" font-family="sans-serif" font-size="14" font-weight="bold" lengthAdjust="spacing" textLength="158.9355" x="1475.0322" y="180.912">Gesti&#243;n de Misiones</text></g><!--cluster PKG3--><g class="cluster" data-entity="PKG3" data-source-line="45" data-uid="ent0020" id="cluster_PKG3"><rect fill="#B6D0E2" height="169.09" rx="2.5" ry="2.5" style="stroke:#181818;stroke-width:1;" width="277" x="830" y="373.65"/><text fill="#000000" font-family="sans-serif" font-size="14" font-style="italic" lengthAdjust="spacing" textLength="78.3262" x="929.3369" y="388.6451">&#171;Tecnicas&#187;</text><text fill="#000000" font-family="sans-serif" font-size="14" font-weight="bold" lengthAdjust="spacing" textLength="157.8486" x="889.5757" y="404.942">Gesti&#243;n de T&#233;cnicas</text></g><!--cluster PKG4--><g class="cluster" data-entity="PKG4" data-source-line="52" data-uid="ent0024" id="cluster_PKG4"><rect fill="#FAD6A5" height="503.06" rx="2.5" ry="2.5" style="stroke:#181818;stroke-width:1;" width="188" x="1187" y="373.99"/><text fill="#000000" font-family="sans-serif" font-size="14" font-style="italic" lengthAdjust="spacing" textLength="94.6572" x="1233.6714" y="388.9851">&#171;Hechiceros&#187;</text><text fill="#000000" font-family="sans-serif" font-size="14" font-weight="bold" lengthAdjust="spacing" textLength="42.3418" x="1259.8291" y="405.282">PKG4</text></g><!--cluster PKG5--><g class="cluster" data-entity="PKG5" data-source-line="64" data-uid="ent0031" id="cluster_PKG5"><rect fill="#F8C8DC" height="503.45" rx="2.5" ry="2.5" style="stroke:#181818;stroke-width:1;" width="182" x="1833" y="374.28"/><text fill="#000000" font-family="sans-serif" font-size="14" font-style="italic" lengthAdjust="spacing" textLength="84.5264" x="1881.7368" y="389.2751">&#171;Traslados&#187;</text><text fill="#000000" font-family="sans-serif" font-size="14" font-weight="bold" lengthAdjust="spacing" textLength="166.1133" x="1840.9434" y="405.572">Gesti&#243;n de Traslados</text></g><!--cluster PKG6--><g class="cluster" data-entity="PKG6" data-source-line="73" data-uid="ent0037" id="cluster_PKG6"><rect fill="#AFEEEE" height="285.31" rx="2.5" ry="2.5" style="stroke:#181818;stroke-width:1;" width="336" x="68" y="592.1"/><text fill="#000000" font-family="sans-serif" font-size="14" font-style="italic" lengthAdjust="spacing" textLength="80.0762" x="195.9619" y="607.0951">&#171;Reportes&#187;</text><text fill="#000000" font-family="sans-serif" font-size="14" font-weight="bold" lengthAdjust="spacing" textLength="151.5254" x="160.2373" y="623.392">Reportes y An&#225;lisis</text></g><!--entity UC1--><g class="entity" data-entity="UC1" data-source-line="26" data-uid="ent0007" id="entity_UC1"><ellipse cx="534.998" cy="268.9968" fill="#F1F1F1" rx="59.668" ry="25.0368" style="stroke:#181818;stroke-width:0.5;"/><text fill="#000000" font-family="sans-serif" font-size="14" lengthAdjust="spacing" textLength="67.0947" x="501.4506" y="264.0334">Consultar</text><text fill="#000000" font-family="sans-serif" font-size="14" lengthAdjust="spacing" textLength="83.8154" x="493.0903" y="280.3302">maldiciones</text></g><!--entity UC2--><g class="entity" data-entity="UC2" data-source-line="27" data-uid="ent0008" id="entity_UC2"><ellipse cx="525.0007" cy="493.1968" fill="#F1F1F1" rx="50.3507" ry="25.7268" style="stroke:#181818;stroke-width:0.5;"/><text fill="#000000" font-family="sans-serif" font-size="14" lengthAdjust="spacing" textLength="63.9912" x="493.0051" y="489.2403">Registrar</text><text fill="#000000" font-family="sans-serif" font-size="14" lengthAdjust="spacing" textLength="67.9082" x="491.0466" y="505.5372">maldici&#243;n</text></g><!--entity UC3--><g class="entity" data-entity="UC3" data-source-line="28" data-uid="ent0009" id="entity_UC3"><ellipse cx="700.0023" cy="269.0032" fill="#F1F1F1" rx="51.9623" ry="25.9032" style="stroke:#181818;stroke-width:0.5;"/><text fill="#000000" font-family="sans-serif" font-size="14" lengthAdjust="spacing" textLength="69.6787" x="665.1629" y="265.7076">Actualizar</text><text fill="#000000" font-family="sans-serif" font-size="14" lengthAdjust="spacing" textLength="67.9082" x="666.0482" y="282.0045">maldici&#243;n</text></g><!--entity UC4--><g class="entity" data-entity="UC4" data-source-line="29" data-uid="ent0010" id="entity_UC4"><ellipse cx="713.9979" cy="493.198" fill="#F1F1F1" rx="44.0979" ry="25.908" style="stroke:#181818;stroke-width:0.5;"/><text fill="#000000" font-family="sans-serif" font-size="14" lengthAdjust="spacing" textLength="57.0391" x="685.4784" y="489.5004">Generar</text><text fill="#000000" font-family="sans-serif" font-size="14" lengthAdjust="spacing" textLength="58.4746" x="684.7606" y="505.7973">solicitud</text></g><!--entity UC5--><g class="entity" data-entity="UC5" data-source-line="36" data-uid="ent0014" id="entity_UC5"><ellipse cx="1606.0012" cy="269.0031" fill="#F1F1F1" rx="39.2812" ry="25.3731" style="stroke:#181818;stroke-width:0.5;"/><text fill="#000000" font-family="sans-serif" font-size="14" lengthAdjust="spacing" textLength="52.8555" x="1579.5734" y="266.4713">Asignar</text><text fill="#000000" font-family="sans-serif" font-size="14" lengthAdjust="spacing" textLength="46.1494" x="1582.9265" y="282.7682">misi&#243;n</text></g><!--entity UC6--><g class="entity" data-entity="UC6" data-source-line="37" data-uid="ent0015" id="entity_UC6"><ellipse cx="1612.0038" cy="493.2047" fill="#F1F1F1" rx="49.5938" ry="25.6347" style="stroke:#181818;stroke-width:0.5;"/><text fill="#000000" font-family="sans-serif" font-size="14" lengthAdjust="spacing" textLength="67.0947" x="1578.4565" y="490.2936">Consultar</text><text fill="#000000" font-family="sans-serif" font-size="14" lengthAdjust="spacing" textLength="62.0566" x="1580.9755" y="506.5904">misiones</text></g><!--entity UC7--><g class="entity" data-entity="UC7" data-source-line="38" data-uid="ent0016" id="entity_UC7"><ellipse cx="1488.0034" cy="269.001" fill="#F1F1F1" rx="48.9434" ry="24.491" style="stroke:#181818;stroke-width:0.5;"/><text fill="#000000" font-family="sans-serif" font-size="14" lengthAdjust="spacing" textLength="69.6787" x="1453.164" y="267.788">Actualizar</text><text fill="#000000" font-family="sans-serif" font-size="14" lengthAdjust="spacing" textLength="46.1494" x="1464.9287" y="284.0849">misi&#243;n</text></g><!--entity UC8--><g class="entity" data-entity="UC8" data-source-line="39" data-uid="ent0017" id="entity_UC8"><ellipse cx="1486.0043" cy="493.2025" fill="#F1F1F1" rx="46.9043" ry="25.3625" style="stroke:#181818;stroke-width:0.5;"/><text fill="#000000" font-family="sans-serif" font-size="14" lengthAdjust="spacing" textLength="63.9912" x="1454.0087" y="490.6862">Registrar</text><text fill="#000000" font-family="sans-serif" font-size="14" lengthAdjust="spacing" textLength="55.7334" x="1458.1376" y="506.9831">eventos</text></g><!--entity UC9--><g class="entity" data-entity="UC9" data-source-line="46" data-uid="ent0021" id="entity_UC9"><ellipse cx="1021.0014" cy="493.1995" fill="#F1F1F1" rx="47.2714" ry="25.5495" style="stroke:#181818;stroke-width:0.5;"/><text fill="#000000" font-family="sans-serif" font-size="14" lengthAdjust="spacing" textLength="63.9912" x="989.0058" y="490.4114">Registrar</text><text fill="#000000" font-family="sans-serif" font-size="14" lengthAdjust="spacing" textLength="58.1328" x="991.935" y="506.7082">t&#233;cnicas</text></g><!--entity UC10--><g class="entity" data-entity="UC10" data-source-line="47" data-uid="ent0022" id="entity_UC10"><ellipse cx="899.0034" cy="493.2009" fill="#F1F1F1" rx="45.1734" ry="24.4809" style="stroke:#181818;stroke-width:0.5;"/><text fill="#000000" font-family="sans-serif" font-size="14" lengthAdjust="spacing" textLength="63.9912" x="867.0078" y="492.0034">Registrar</text><text fill="#000000" font-family="sans-serif" font-size="14" lengthAdjust="spacing" textLength="42.1982" x="877.9043" y="508.3003">da&#241;os</text></g><!--entity UC11--><g class="entity" data-entity="UC11" data-source-line="56" data-uid="ent0026" id="entity_UC11"><ellipse cx="1274.0015" cy="493.196" fill="#F1F1F1" rx="48.7115" ry="25.206" style="stroke:#181818;stroke-width:0.5;"/><text fill="#000000" font-family="sans-serif" font-size="14" lengthAdjust="spacing" textLength="67.0947" x="1240.4541" y="490.9091">Consultar</text><text fill="#000000" font-family="sans-serif" font-size="14" lengthAdjust="spacing" textLength="56.2256" x="1245.8887" y="507.206">historial</text></g><!--entity UC12--><g class="entity" data-entity="UC12" data-source-line="57" data-uid="ent0027" id="entity_UC12"><ellipse cx="1285.0036" cy="710.8566" fill="#F1F1F1" rx="49.0836" ry="24.5566" style="stroke:#181818;stroke-width:0.5;"/><text fill="#000000" font-family="sans-serif" font-size="14" lengthAdjust="spacing" textLength="69.6787" x="1250.1642" y="709.5432">Actualizar</text><text fill="#000000" font-family="sans-serif" font-size="14" lengthAdjust="spacing" textLength="47.4277" x="1261.2897" y="725.8401">estado</text></g><!--entity UC13--><g class="entity" data-entity="UC13" data-source-line="58" data-uid="ent0028" id="entity_UC13"><ellipse cx="1285.0047" cy="828.3532" fill="#F1F1F1" rx="65.8247" ry="24.7032" style="stroke:#181818;stroke-width:0.5;"/><text fill="#000000" font-family="sans-serif" font-size="14" lengthAdjust="spacing" textLength="67.9082" x="1251.0506" y="822.8896">Gestionar</text><text fill="#000000" font-family="sans-serif" font-size="14" lengthAdjust="spacing" textLength="94.3496" x="1237.8299" y="839.1865">subordinados</text></g><!--entity UC14--><g class="entity" data-entity="UC14" data-source-line="65" data-uid="ent0032" id="entity_UC14"><ellipse cx="1930.998" cy="493.201" fill="#F1F1F1" rx="52.718" ry="24.911" style="stroke:#181818;stroke-width:0.5;"/><text fill="#000000" font-family="sans-serif" font-size="14" lengthAdjust="spacing" textLength="73.958" x="1894.019" y="491.3519">Programar</text><text fill="#000000" font-family="sans-serif" font-size="14" lengthAdjust="spacing" textLength="57.0391" x="1902.4785" y="507.6488">traslado</text></g><!--entity UC15--><g class="entity" data-entity="UC15" data-source-line="66" data-uid="ent0033" id="entity_UC15"><ellipse cx="1931.0022" cy="710.8573" fill="#F1F1F1" rx="50.2822" ry="25.1173" style="stroke:#181818;stroke-width:0.5;"/><text fill="#000000" font-family="sans-serif" font-size="14" lengthAdjust="spacing" textLength="69.6787" x="1896.1629" y="708.7014">Actualizar</text><text fill="#000000" font-family="sans-serif" font-size="14" lengthAdjust="spacing" textLength="57.0391" x="1902.4827" y="724.9982">traslado</text></g><!--entity UC16--><g class="entity" data-entity="UC16" data-source-line="67" data-uid="ent0034" id="entity_UC16"><ellipse cx="1926.9994" cy="828.3486" fill="#F1F1F1" rx="44.5094" ry="25.3786" style="stroke:#181818;stroke-width:0.5;"/><text fill="#000000" font-family="sans-serif" font-size="14" lengthAdjust="spacing" textLength="52.8555" x="1900.5716" y="823.8885">Asignar</text><text fill="#000000" font-family="sans-serif" font-size="14" lengthAdjust="spacing" textLength="60.457" x="1896.7709" y="840.1854">personal</text></g><!--entity UC17--><g class="entity" data-entity="UC17" data-source-line="74" data-uid="ent0038" id="entity_UC17"><ellipse cx="169.0037" cy="710.862" fill="#F1F1F1" rx="54.8937" ry="24.752" style="stroke:#181818;stroke-width:0.5;"/><text fill="#000000" font-family="sans-serif" font-size="14" lengthAdjust="spacing" textLength="56.9365" x="140.5355" y="705.4722">Ranking</text><text fill="#000000" font-family="sans-serif" font-size="14" lengthAdjust="spacing" textLength="77.7588" x="130.1243" y="721.7691">efectividad</text></g><!--entity UC18--><g class="entity" data-entity="UC18" data-source-line="75" data-uid="ent0039" id="entity_UC18"><ellipse cx="142.0018" cy="828.3548" fill="#F1F1F1" rx="49.8018" ry="25.0548" style="stroke:#181818;stroke-width:0.5;"/><text fill="#000000" font-family="sans-serif" font-size="14" lengthAdjust="spacing" textLength="55.6514" x="114.1761" y="823.4182">Reporte</text><text fill="#000000" font-family="sans-serif" font-size="14" lengthAdjust="spacing" textLength="69.166" x="107.4188" y="839.7151">disc&#237;pulos</text></g><!--entity UC19--><g class="entity" data-entity="UC19" data-source-line="76" data-uid="ent0040" id="entity_UC19"><ellipse cx="309.9987" cy="710.8604" fill="#F1F1F1" rx="55.7987" ry="24.2604" style="stroke:#181818;stroke-width:0.5;"/><text fill="#000000" font-family="sans-serif" font-size="14" lengthAdjust="spacing" textLength="53.2861" x="269.5266" y="710.0038">An&#225;lisis</text><text fill="#000000" font-family="sans-serif" font-size="14" lengthAdjust="spacing" textLength="4.4502" x="322.8127" y="710.0038">&#160;</text><text fill="#000000" font-family="sans-serif" font-size="14" lengthAdjust="spacing" textLength="23.208" x="327.2629" y="710.0038">por</text><text fill="#000000" font-family="sans-serif" font-size="14" lengthAdjust="spacing" textLength="47.9678" x="286.0148" y="726.3007">grados</text></g><!--entity UC20--><g class="entity" data-entity="UC20" data-source-line="77" data-uid="ent0041" id="entity_UC20"><ellipse cx="328.9989" cy="828.348" fill="#F1F1F1" rx="42.7189" ry="24.518" style="stroke:#181818;stroke-width:0.5;"/><text fill="#000000" font-family="sans-serif" font-size="14" lengthAdjust="spacing" textLength="60.1631" x="298.9173" y="827.0937">Exportar</text><text fill="#000000" font-family="sans-serif" font-size="14" lengthAdjust="spacing" textLength="8.5791" x="308.8465" y="843.3906">a</text><text fill="#000000" font-family="sans-serif" font-size="14" lengthAdjust="spacing" textLength="4.4502" x="317.4257" y="843.3906">&#160;</text><text fill="#000000" font-family="sans-serif" font-size="14" lengthAdjust="spacing" textLength="27.2754" x="321.8758" y="843.3906">PDF</text></g><!--entity SUP--><g class="entity" data-entity="SUP" data-source-line="19" data-uid="ent0002" id="entity_SUP"><ellipse cx="270.0028" cy="30.15" fill="#990000" rx="16" ry="16" style="stroke:#181818;stroke-width:0.5;"/><path d="M270.0028,50.15 C274.0028,50.15 277.0028,50.15 281.0028,46.15 C289.0028,46.15 297.0028,54.15 297.0028,62.15 L297.0028,66.15 C297.0028,70.15 293.0028,74.15 289.0028,74.15 L251.0028,74.15 C247.0028,74.15 243.0028,70.15 243.0028,66.15 L243.0028,62.15 C243.0028,54.15 251.0028,46.15 259.0028,46.15 C263.0028,50.15 266.0028,50.15 270.0028,50.15" fill="#990000" style="stroke:#181818;stroke-width:0.5;"/><text fill="#000000" font-family="sans-serif" font-size="14" lengthAdjust="spacing" textLength="74.8057" x="232.6" y="87.6451">Supervisor</text></g><!--entity HEC--><g class="entity" data-entity="HEC" data-source-line="20" data-uid="ent0003" id="entity_HEC"><ellipse cx="1271.9962" cy="246.85" fill="#1A5490" rx="16" ry="16" style="stroke:#181818;stroke-width:0.5;"/><path d="M1271.9962,266.85 C1275.9962,266.85 1278.9962,266.85 1282.9962,262.85 C1290.9962,262.85 1298.9962,270.85 1298.9962,278.85 L1298.9962,282.85 C1298.9962,286.85 1294.9962,290.85 1290.9962,290.85 L1252.9962,290.85 C1248.9962,290.85 1244.9962,286.85 1244.9962,282.85 L1244.9962,278.85 C1244.9962,270.85 1252.9962,262.85 1260.9962,262.85 C1264.9962,266.85 1267.9962,266.85 1271.9962,266.85" fill="#1A5490" style="stroke:#181818;stroke-width:0.5;"/><text fill="#000000" font-family="sans-serif" font-size="14" lengthAdjust="spacing" textLength="70.2324" x="1236.88" y="304.3451">Hechicero</text></g><!--entity PA--><g class="entity" data-entity="PA" data-source-line="21" data-uid="ent0004" id="entity_PA"><ellipse cx="1789.0014" cy="22" fill="#CC6600" rx="16" ry="16" style="stroke:#181818;stroke-width:0.5;"/><path d="M1789.0014,42 C1793.0014,42 1796.0014,42 1800.0014,38 C1808.0014,38 1816.0014,46 1816.0014,54 L1816.0014,58 C1816.0014,62 1812.0014,66 1808.0014,66 L1770.0014,66 C1766.0014,66 1762.0014,62 1762.0014,58 L1762.0014,54 C1762.0014,46 1770.0014,38 1778.0014,38 C1782.0014,42 1785.0014,42 1789.0014,42" fill="#CC6600" style="stroke:#181818;stroke-width:0.5;"/><text fill="#000000" font-family="sans-serif" font-size="14" lengthAdjust="spacing" textLength="60.0127" x="1748.02" y="79.4951">Personal</text><text fill="#000000" font-family="sans-serif" font-size="14" lengthAdjust="spacing" textLength="4.4502" x="1808.0327" y="79.4951">&#160;</text><text fill="#000000" font-family="sans-serif" font-size="14" lengthAdjust="spacing" textLength="17.5" x="1812.4829" y="79.4951">de</text><text fill="#000000" font-family="sans-serif" font-size="14" lengthAdjust="spacing" textLength="43.8799" x="1767.0615" y="95.792">Apoyo</text></g><!--entity SIS--><g class="entity" data-entity="SIS" data-source-line="22" data-uid="ent0005" id="entity_SIS"><ellipse cx="399.0048" cy="246.85" fill="#2D5016" rx="16" ry="16" style="stroke:#181818;stroke-width:0.5;"/><path d="M399.0048,266.85 C403.0048,266.85 406.0048,266.85 410.0048,262.85 C418.0048,262.85 426.0048,270.85 426.0048,278.85 L426.0048,282.85 C426.0048,286.85 422.0048,290.85 418.0048,290.85 L380.0048,290.85 C376.0048,290.85 372.0048,286.85 372.0048,282.85 L372.0048,278.85 C372.0048,270.85 380.0048,262.85 388.0048,262.85 C392.0048,266.85 395.0048,266.85 399.0048,266.85" fill="#2D5016" style="stroke:#181818;stroke-width:0.5;"/><text fill="#000000" font-family="sans-serif" font-size="14" lengthAdjust="spacing" textLength="56.3896" x="370.81" y="304.3451">Sistema</text></g><!--link UC1 to UC2--><!--link UC3 to UC4--><!--link UC5 to UC6--><!--link UC5 to UC6--><g class="link" data-entity-1="UC5" data-entity-2="UC6" data-source-line="121" data-uid="lnk70" id="link_UC5_UC6"><path d="M1586.46,291.45 C1577.43,302.82 1567.69,317.53 1563,332.65 C1548.02,380.94 1573.0472,432.4438 1592.5272,463.5738" fill="none" id="UC5-to-UC6" style="stroke:#181818;stroke-width:1;stroke-dasharray:7,7;"/><polygon fill="#181818" points="1595.71,468.66,1594.3267,458.9088,1593.0577,464.4215,1587.545,463.1525,1595.71,468.66" style="stroke:#181818;stroke-width:1;"/><text fill="#000000" font-family="sans-serif" font-size="13" lengthAdjust="spacing" textLength="63.0068" x="1564" y="345.7169">&#171;include&#187;</text></g><!--link UC7 to UC8--><!--link PKG1 to PKG2--><!--link PKG1 to PKG4--><!--link UC11 to UC12--><!--link UC12 to UC13--><!--link UC14 to UC15--><!--link UC15 to UC16--><!--link UC17 to UC18--><!--link UC19 to UC20--><!--link UC19 to UC20--><g class="link" data-entity-1="UC19" data-entity-2="UC20" data-source-line="126" data-uid="lnk75" id="link_UC19_UC20"><path d="M313.89,735.51 C317.17,755.44 320.8681,777.8892 324.1381,797.8092" fill="none" id="UC19-to-UC20" style="stroke:#181818;stroke-width:1;stroke-dasharray:7,7;"/><polygon fill="#181818" points="325.11,803.73,327.5993,794.2009,324.3001,798.796,319.7049,795.4968,325.11,803.73" style="stroke:#181818;stroke-width:1;"/><text fill="#000000" font-family="sans-serif" font-size="13" lengthAdjust="spacing" textLength="63.0068" x="321" y="774.0369">&#171;include&#187;</text></g><!--link PKG4 to PKG5--><!--link PKG2 to PKG5--><!--link PKG3 to PKG6--><!--link SUP to UC1--><g class="link" data-entity-1="SUP" data-entity-2="UC1" data-source-line="90" data-uid="lnk47" id="link_SUP_UC1"><path d="M307.79,64.33 C344.98,76.59 401.87,99.24 442,133.09 C479.4,164.64 505.7839,209.3602 520.8739,238.8102" fill="none" id="SUP-to-UC1" style="stroke:#990000;stroke-width:2;"/><polygon fill="#990000" points="523.61,244.15,523.0657,234.3162,521.3299,239.7001,515.946,237.9643,523.61,244.15" style="stroke:#990000;stroke-width:2;"/></g><!--link SUP to UC5--><g class="link" data-entity-1="SUP" data-entity-2="UC5" data-source-line="91" data-uid="lnk48" id="link_SUP_UC5"><path d="M307.63,53.28 C508.46,53.48 1448.77,58.45 1552,133.09 C1587.57,158.82 1598.9431,205.9418 1603.0931,237.3118" fill="none" id="SUP-to-UC5" style="stroke:#990000;stroke-width:2;"/><polygon fill="#990000" points="1603.88,243.26,1606.6651,233.8131,1603.2243,238.3032,1598.7342,234.8623,1603.88,243.26" style="stroke:#990000;stroke-width:2;"/></g><!--link SUP to UC11--><g class="link" data-entity-1="SUP" data-entity-2="UC11" data-source-line="92" data-uid="lnk49" id="link_SUP_UC11"><path d="M307.58,56.1 C413.06,64.41 709.8,91.02 797,133.09 C924.33,194.53 899.53,295.2 1030,349.65 C1049.6,357.83 1203.7,345.33 1221,357.65 C1256.69,383.06 1267.6261,430.3838 1271.4361,461.7338" fill="none" id="SUP-to-UC11" style="stroke:#990000;stroke-width:2;"/><polygon fill="#990000" points="1272.16,467.69,1275.045,458.2732,1271.5568,462.7265,1267.1034,459.2383,1272.16,467.69" style="stroke:#990000;stroke-width:2;"/></g><!--link SUP to UC13--><g class="link" data-entity-1="SUP" data-entity-2="UC13" data-source-line="93" data-uid="lnk50" id="link_SUP_UC13"><path d="M307.77,54.14 C528.72,59.2 1646,87.04 1701,133.09 C1748.33,172.72 1734,206.27 1734,268 C1734,268 1734,268 1734,711.86 C1734,790.13 1480.8077,815.7463 1356.2777,823.7263" fill="none" id="SUP-to-UC13" style="stroke:#990000;stroke-width:2;"/><polygon fill="#990000" points="1350.29,824.11,1359.5274,827.5263,1355.2798,823.7903,1359.0158,819.5426,1350.29,824.11" style="stroke:#990000;stroke-width:2;"/></g><!--link SUP to UC17--><g class="link" data-entity-1="SUP" data-entity-2="UC17" data-source-line="94" data-uid="lnk51" id="link_SUP_UC17"><path d="M264.13,91.43 C245.48,212.68 188.8026,581.1498 173.6126,679.8598" fill="none" id="SUP-to-UC17" style="stroke:#990000;stroke-width:2;"/><polygon fill="#990000" points="172.7,685.79,178.0223,677.5031,173.4605,680.8482,170.1154,676.2863,172.7,685.79" style="stroke:#990000;stroke-width:2;"/></g><!--link SUP to UC18--><g class="link" data-entity-1="SUP" data-entity-2="UC18" data-source-line="95" data-uid="lnk52" id="link_SUP_UC18"><path d="M232.29,58.42 C186.24,66.54 108.62,86.52 61,133.09 C14.71,178.36 6,203.25 6,268 C6,268 6,268 6,711.86 C6,762.66 56.2974,793.4012 96.4174,810.6412" fill="none" id="SUP-to-UC18" style="stroke:#990000;stroke-width:2;"/><polygon fill="#990000" points="101.93,813.01,95.2403,805.7817,97.3362,811.036,92.0819,813.1318,101.93,813.01" style="stroke:#990000;stroke-width:2;"/></g><!--link SUP to UC19--><g class="link" data-entity-1="SUP" data-entity-2="UC19" data-source-line="96" data-uid="lnk53" id="link_SUP_UC19"><path d="M272.32,91.43 C279.72,212.81 302.2053,581.9411 308.1853,680.1411" fill="none" id="SUP-to-UC19" style="stroke:#990000;stroke-width:2;"/><polygon fill="#990000" points="308.55,686.13,311.9956,676.9035,308.2461,681.1392,304.0103,677.3898,308.55,686.13" style="stroke:#990000;stroke-width:2;"/></g><!--link SUP to UC20--><g class="link" data-entity-1="SUP" data-entity-2="UC20" data-source-line="97" data-uid="lnk54" id="link_SUP_UC20"><path d="M232.48,71.58 C174.06,102.98 68,173.06 68,268 C68,268 68,268 68,711.86 C68,759.67 210.5145,799.6445 283.5245,817.1045" fill="none" id="SUP-to-UC20" style="stroke:#990000;stroke-width:2;"/><polygon fill="#990000" points="289.36,818.5,281.5372,812.5164,284.4971,817.3371,279.6765,820.297,289.36,818.5" style="stroke:#990000;stroke-width:2;"/></g><!--link HEC to UC6--><g class="link" data-entity-1="HEC" data-entity-2="UC6" data-source-line="100" data-uid="lnk55" id="link_HEC_UC6"><path d="M1307.59,279.59 C1377.9,298.79 1529.46,341.48 1548,357.65 C1581.44,386.8 1597.295,431.4718 1605.105,461.6118" fill="none" id="HEC-to-UC6" style="stroke:#1A5490;stroke-width:2;"/><polygon fill="#1A5490" points="1606.61,467.42,1608.2246,457.7044,1605.3558,462.5799,1600.4803,459.7111,1606.61,467.42" style="stroke:#1A5490;stroke-width:2;"/></g><!--link HEC to UC8--><g class="link" data-entity-1="HEC" data-entity-2="UC8" data-source-line="101" data-uid="lnk56" id="link_HEC_UC8"><path d="M1307.53,282.42 C1333.29,292.78 1367.72,309.58 1392,332.65 C1433.61,372.17 1460.6109,428.5997 1474.5309,462.4997" fill="none" id="HEC-to-UC8" style="stroke:#1A5490;stroke-width:2;"/><polygon fill="#1A5490" points="1476.81,468.05,1477.0916,458.2052,1474.9108,463.4247,1469.6912,461.2439,1476.81,468.05" style="stroke:#1A5490;stroke-width:2;"/></g><!--link HEC to UC9--><g class="link" data-entity-1="HEC" data-entity-2="UC9" data-source-line="102" data-uid="lnk57" id="link_HEC_UC9"><path d="M1236.44,273.79 C1174.58,281.2 1051.22,299.8 1025,332.65 C994.23,371.19 1002.7835,427.4674 1011.7935,461.7174" fill="none" id="HEC-to-UC9" style="stroke:#1A5490;stroke-width:2;"/><polygon fill="#1A5490" points="1013.32,467.52,1014.8987,457.7985,1012.048,462.6845,1007.1619,459.8338,1013.32,467.52" style="stroke:#1A5490;stroke-width:2;"/></g><!--link HEC to UC10--><g class="link" data-entity-1="HEC" data-entity-2="UC10" data-source-line="103" data-uid="lnk58" id="link_HEC_UC10"><path d="M1236.45,275.3 C1162.83,287.01 997.36,317.23 959,357.65 C928.72,389.56 913.5647,433.517 905.8847,462.747" fill="none" id="HEC-to-UC10" style="stroke:#1A5490;stroke-width:2;"/><polygon fill="#1A5490" points="904.36,468.55,910.5158,460.8619,905.6306,463.7141,902.7784,458.829,904.36,468.55" style="stroke:#1A5490;stroke-width:2;"/></g><!--link HEC to UC12--><g class="link" data-entity-1="HEC" data-entity-2="UC12" data-source-line="104" data-uid="lnk59" id="link_HEC_UC12"><path d="M1307.53,306.13 C1319.65,320.87 1331.72,338.86 1338,357.65 C1377.91,476.99 1323.2818,623.6617 1298.2118,681.0517" fill="none" id="HEC-to-UC12" style="stroke:#1A5490;stroke-width:2;"/><polygon fill="#1A5490" points="1295.81,686.55,1303.0783,679.9038,1297.8115,681.9681,1295.7472,676.7013,1295.81,686.55" style="stroke:#1A5490;stroke-width:2;"/></g><!--link HEC to UC20--><g class="link" data-entity-1="HEC" data-entity-2="UC20" data-source-line="105" data-uid="lnk60" id="link_HEC_UC20"><path d="M1236.4,296.67 C1217.36,312.54 1194.84,334.14 1180,357.65 C1129.7,437.32 1175.55,487.77 1114,559.1 C914.07,790.82 511.1671,822.4936 377.9771,826.6336" fill="none" id="HEC-to-UC20" style="stroke:#1A5490;stroke-width:2;"/><polygon fill="#1A5490" points="371.98,826.82,381.0999,830.5385,376.9776,826.6647,380.8514,822.5423,371.98,826.82" style="stroke:#1A5490;stroke-width:2;"/></g><!--link PA to UC3--><g class="link" data-entity-1="PA" data-entity-2="UC3" data-source-line="108" data-uid="lnk61" id="link_PA_UC3"><path d="M1747.52,53.97 C1564.84,57.28 837.42,74.08 756,133.09 C720.48,158.84 708.2883,205.4676 703.5383,236.8376" fill="none" id="PA-to-UC3" style="stroke:#CC6600;stroke-width:2;"/><polygon fill="#CC6600" points="702.64,242.77,707.9423,234.4703,703.3886,237.8264,700.0325,233.2726,702.64,242.77" style="stroke:#CC6600;stroke-width:2;"/></g><!--link PA to UC7--><g class="link" data-entity-1="PA" data-entity-2="UC7" data-source-line="109" data-uid="lnk62" id="link_PA_UC7"><path d="M1747.68,57.35 C1696.13,64.42 1607.99,83.36 1552,133.09 C1518.37,162.96 1502.4312,208.5008 1494.6812,238.4908" fill="none" id="PA-to-UC7" style="stroke:#CC6600;stroke-width:2;"/><polygon fill="#CC6600" points="1493.18,244.3,1499.3046,236.5871,1494.431,239.459,1491.559,234.5855,1493.18,244.3" style="stroke:#CC6600;stroke-width:2;"/></g><!--link PA to UC14--><g class="link" data-entity-1="PA" data-entity-2="UC14" data-source-line="110" data-uid="lnk63" id="link_PA_UC14"><path d="M1818.85,99.59 C1823.3,107.57 1827.55,115.93 1831,124.09 C1883.65,248.51 1914.8116,402.4777 1925.7416,462.2977" fill="none" id="PA-to-UC14" style="stroke:#CC6600;stroke-width:2;"/><polygon fill="#CC6600" points="1926.82,468.2,1929.1372,458.6276,1925.9213,463.2814,1921.2675,460.0655,1926.82,468.2" style="stroke:#CC6600;stroke-width:2;"/></g><!--link PA to UC15--><g class="link" data-entity-1="PA" data-entity-2="UC15" data-source-line="111" data-uid="lnk64" id="link_PA_UC15"><path d="M1830.14,81.52 C1848.5,95.53 1869.45,113.61 1885,133.09 C1954.81,220.58 1972.95,248.79 1999,357.65 C2019.84,444.72 2017.83,471.57 1999,559.1 C1988.74,606.82 1965.1369,652.4537 1948.4069,681.2137" fill="none" id="PA-to-UC15" style="stroke:#CC6600;stroke-width:2;"/><polygon fill="#CC6600" points="1945.39,686.4,1953.373,680.6318,1947.9041,682.0781,1946.4579,676.6092,1945.39,686.4" style="stroke:#CC6600;stroke-width:2;"/></g><!--link PA to UC16--><g class="link" data-entity-1="PA" data-entity-2="UC16" data-source-line="112" data-uid="lnk65" id="link_PA_UC16"><path d="M1785.31,99.51 C1778.07,213.11 1770.25,512.94 1866,735.97 C1876.91,761.39 1891.3655,782.579 1905.0255,800.289" fill="none" id="PA-to-UC16" style="stroke:#CC6600;stroke-width:2;"/><polygon fill="#CC6600" points="1908.69,805.04,1906.3606,795.4706,1905.6363,801.0809,1900.026,800.3566,1908.69,805.04" style="stroke:#CC6600;stroke-width:2;"/></g><!--link PA to UC20--><g class="link" data-entity-1="PA" data-entity-2="UC20" data-source-line="113" data-uid="lnk66" id="link_PA_UC20"><path d="M1747.69,54.02 C1517.85,58.21 405.12,81.16 356,133.09 C297.7,194.73 408.38,550.23 411,576.1 C418.17,646.79 425.98,666.52 411,735.97 C406.68,756 404.65,761.86 392,777.97 C382.39,790.22 374.0135,797.7141 362.1335,806.1941" fill="none" id="PA-to-UC20" style="stroke:#CC6600;stroke-width:2;"/><polygon fill="#CC6600" points="357.25,809.68,366.8992,807.7069,361.3196,806.7751,362.2514,801.1955,357.25,809.68" style="stroke:#CC6600;stroke-width:2;"/></g><!--link SIS to UC2--><g class="link" data-entity-1="SIS" data-entity-2="UC2" data-source-line="116" data-uid="lnk67" id="link_SIS_UC2"><path d="M420.52,307.94 C446.52,353.8 486.5507,424.3806 508.3907,462.9006" fill="none" id="SIS-to-UC2" style="stroke:#2D5016;stroke-width:2;"/><polygon fill="#2D5016" points="511.35,468.12,510.3907,458.318,508.8839,463.7705,503.4314,462.2637,511.35,468.12" style="stroke:#2D5016;stroke-width:2;"/></g><!--link SIS to UC4--><g class="link" data-entity-1="SIS" data-entity-2="UC4" data-source-line="117" data-uid="lnk68" id="link_SIS_UC4"><path d="M427.54,289.13 C437.57,295.44 449.07,302.23 460,307.65 C515.47,335.13 538.79,322.86 590,357.65 C635.46,388.53 672.5725,434.2738 694.1425,463.8238" fill="none" id="SIS-to-UC4" style="stroke:#2D5016;stroke-width:2;"/><polygon fill="#2D5016" points="697.68,468.67,695.6046,459.0423,694.7321,464.6315,689.1429,463.759,697.68,468.67" style="stroke:#2D5016;stroke-width:2;"/></g><!--link UC2 to UC4--><g class="link" data-entity-1="UC2" data-entity-2="UC4" data-source-line="120" data-uid="lnk69" id="link_UC2_UC4"><path d="M575.65,493.2 C604.95,493.2 635.49,493.2 663.65,493.2" fill="none" id="UC2-to-UC4" style="stroke:#181818;stroke-width:1;stroke-dasharray:7,7;"/><polygon fill="#181818" points="669.65,493.2,660.65,489.2,664.65,493.2,660.65,497.2,669.65,493.2" style="stroke:#181818;stroke-width:1;"/><text fill="#000000" font-family="sans-serif" font-size="13" lengthAdjust="spacing" textLength="63.0068" x="591.13" y="486.2669">&#171;include&#187;</text></g><!--link UC8 to UC9--><g class="link" data-entity-1="UC8" data-entity-2="UC9" data-source-line="122" data-uid="lnk71" id="link_UC8_UC9"><path d="M1475.45,468.14 C1461.37,438.34 1433.3,390.07 1392,369.59 C1328.29,338.01 1131.1,330.05 1072,369.59 C1039.49,391.35 1028.5435,432.0725 1024.2735,461.4325" fill="none" id="UC8-to-UC9" style="stroke:#181818;stroke-width:1;stroke-dasharray:7,7;"/><polygon fill="#181818" points="1023.41,467.37,1028.6637,459.0394,1024.1296,462.4221,1020.7469,457.888,1023.41,467.37" style="stroke:#181818;stroke-width:1;"/><text fill="#000000" font-family="sans-serif" font-size="13" lengthAdjust="spacing" textLength="63.0068" x="1102.5" y="345.7169">&#171;include&#187;</text></g><!--link UC8 to UC10--><g class="link" data-entity-1="UC8" data-entity-2="UC10" data-source-line="123" data-uid="lnk72" id="link_UC8_UC10"><path d="M1475.45,468.14 C1461.37,438.34 1433.3,390.07 1392,369.59 C1305.79,326.85 1040.55,318.53 959,369.59 C924.43,391.24 910.5176,433.2511 904.2676,462.6511" fill="none" id="UC8-to-UC10" style="stroke:#181818;stroke-width:1;stroke-dasharray:7,7;"/><polygon fill="#181818" points="903.02,468.52,908.804,460.5485,904.0597,463.6293,900.9789,458.885,903.02,468.52" style="stroke:#181818;stroke-width:1;"/><text fill="#000000" font-family="sans-serif" font-size="13" lengthAdjust="spacing" textLength="63.0068" x="1032.5" y="345.7169">&#171;include&#187;</text></g><!--link UC17 to UC20--><g class="link" data-entity-1="UC17" data-entity-2="UC20" data-source-line="124" data-uid="lnk73" id="link_UC17_UC20"><path d="M188.69,734.38 C201.34,748.02 218.61,765.2 236,777.97 C254.56,791.61 271.9735,801.1782 290.3635,810.0282" fill="none" id="UC17-to-UC20" style="stroke:#181818;stroke-width:1;stroke-dasharray:7,7;"/><polygon fill="#181818" points="295.77,812.63,289.3948,805.1229,291.2646,810.4618,285.9257,812.3316,295.77,812.63" style="stroke:#181818;stroke-width:1;"/><text fill="#000000" font-family="sans-serif" font-size="13" lengthAdjust="spacing" textLength="63.0068" x="237" y="774.0369">&#171;include&#187;</text></g><!--link UC18 to UC20--><g class="link" data-entity-1="UC18" data-entity-2="UC20" data-source-line="125" data-uid="lnk74" id="link_UC18_UC20"><path d="M192.11,828.35 C221.43,828.35 252.06,828.35 280.05,828.35" fill="none" id="UC18-to-UC20" style="stroke:#181818;stroke-width:1;stroke-dasharray:7,7;"/><polygon fill="#181818" points="286.05,828.35,277.05,824.35,281.05,828.35,277.05,832.35,286.05,828.35" style="stroke:#181818;stroke-width:1;"/><text fill="#000000" font-family="sans-serif" font-size="13" lengthAdjust="spacing" textLength="63.0068" x="207.54" y="821.4169">&#171;include&#187;</text></g><g class="legend" data-source-line="129"><rect fill="#DDDDDD" height="99.1563" rx="7.5" ry="7.5" style="stroke:#000000;stroke-width:1;" width="360.6152" x="826.1124" y="894.73"/><text fill="#000000" font-family="sans-serif" font-size="12" font-weight="bold" lengthAdjust="spacing" textLength="135.1523" x="938.8438" y="910.8687">Actores del Sistema</text><line style="stroke:#000000;stroke-width:1;" x1="826.1124" x2="1186.7276" y1="918.6988" y2="918.6988"/><line style="stroke:#000000;stroke-width:1;" x1="826.1124" x2="1186.7276" y1="920.6988" y2="920.6988"/><text fill="#990000" font-family="sans-serif" font-size="14" lengthAdjust="spacing" textLength="39.6826" x="832.4488" y="936.6939">&#9644;&#9644;&#9644;</text><text fill="#000000" font-family="sans-serif" font-size="14" lengthAdjust="spacing" textLength="4.4502" x="872.1314" y="936.6939">&#160;</text><text fill="#990000" font-family="sans-serif" font-size="14" font-weight="bold" lengthAdjust="spacing" textLength="90.8496" x="876.5816" y="936.6939">Supervisor:</text><text fill="#000000" font-family="sans-serif" font-size="14" lengthAdjust="spacing" textLength="208.5098" x="971.8814" y="936.6939">Hechicero grado especial/alto</text><text fill="#1A5490" font-family="sans-serif" font-size="14" lengthAdjust="spacing" textLength="39.6826" x="831.1124" y="952.9907">&#9644;&#9644;&#9644;</text><text fill="#000000" font-family="sans-serif" font-size="14" lengthAdjust="spacing" textLength="4.4502" x="870.795" y="952.9907">&#160;</text><text fill="#1A5490" font-family="sans-serif" font-size="14" font-weight="bold" lengthAdjust="spacing" textLength="84.1914" x="875.2452" y="952.9907">Hechicero:</text><text fill="#000000" font-family="sans-serif" font-size="14" lengthAdjust="spacing" textLength="217.8408" x="963.8868" y="952.9907">Grado medio, ejecuta misiones</text><text fill="#CC6600" font-family="sans-serif" font-size="14" lengthAdjust="spacing" textLength="39.6826" x="847.5733" y="969.2876">&#9644;&#9644;&#9644;</text><text fill="#000000" font-family="sans-serif" font-size="14" lengthAdjust="spacing" textLength="4.4502" x="887.2559" y="969.2876">&#160;</text><text fill="#CC6600" font-family="sans-serif" font-size="14" font-weight="bold" lengthAdjust="spacing" textLength="152.9063" x="891.7061" y="969.2876">Personal de Apoyo:</text><text fill="#000000" font-family="sans-serif" font-size="14" lengthAdjust="spacing" textLength="116.2041" x="1049.0626" y="969.2876">Gesti&#243;n log&#237;stica</text><text fill="#2D5016" font-family="sans-serif" font-size="14" lengthAdjust="spacing" textLength="39.6826" x="870.942" y="985.5845">&#9644;&#9644;&#9644;</text><text fill="#000000" font-family="sans-serif" font-size="14" lengthAdjust="spacing" textLength="4.4502" x="910.6246" y="985.5845">&#160;</text><text fill="#2D5016" font-family="sans-serif" font-size="14" font-weight="bold" lengthAdjust="spacing" textLength="69.0361" x="915.0748" y="985.5845">Sistema:</text><text fill="#000000" font-family="sans-serif" font-size="14" lengthAdjust="spacing" textLength="153.3369" x="988.5611" y="985.5845">Procesos autom&#225;ticos</text></g><!--SRC=[ZLVBRjj65DtpAmRs8YuGnwGaqfAX250asIdQ0eBbe8iuYp5vJOzDpQWpf1sxw6zqdsM1Pb7q4_Gd_PBU6Jv4YQGfGNw0vzpdtCVm3Pa8Vil2H5AVhV_bP4Kb9H5z5abC7a76pASHySLoHVrOMB5OaLYG6n77Oaa29i6FcU2MUc1SIovHtd-W8IpYvmY8XYaF8oWHj1wPmlG9b5YMmG1kQHB5L_0r7aSiv4lWCV7n5yWIwqdIrQyiYE-8qxTBpxa8GC6ATCiF9UKF-g5hMzORZ3OI4XGQGaz_Io06LNN-0_u9fKXuOEZ3uIyq2fYFWO8QZSZXp9jvv-Dzv9WgXARskJsnzn2w0fzZretG1szgppfx27q4_uxv88KHEnzFlR6xZor9LKI3JAe_wKydUqXTmah8E0rhV3x3ZqxjM1yifXOure-kenY8IbOWcP1OGHn_JEujKm5aeQ57fl1VgiZYqvmS3WOsVZAyY4Z37sSJSkYCtTuWXm_c89NWM9m1NFFnIZoB0ysSZydXPE9vXPu5Kp4igJ7ouu8STgQkxNZQuRbaIy1glsNeRxaWihZ9mGMes7G5egKQE22x9Q4D_tJXaDyjGX85U7eeZPsbi9YflERBiZ2IFqsSClCIGlHIbfXeD2DsoaJCSK8ZzbBBx9QP5y31A5GYGbQS11chXopyeWVa-FCT2mBWNmBnn8ypMwYd2lIiFwo6j6GbRdAoAVSq8PtjX8mLjhHn7OaRlzscf1Mg3SrhJCIMjjE6nC8ZZX6HA-ldMN2hmNe6EAq2_SOiNAt_IfjMfw7Km6aQkjjfA3aLR-ICMuC6Na3N_nI-ExRsmzHRuQ9auLryR7A-2wNUuxEUBle5XDZ8-nRzPgpemBQ6J1fQhx7axz1t8HcDSg-TflD3UpY2SbfdkugLtY-cZfCR8GF6zRJAkTsYbckAsKchsUdKGDtcaymdeZd9qdXCutMtuvrB4UAaD4UPSNFVUatXxXBTsXPPPUCjPtb5gBsQUDmKgYbc52o7cezkyap6VFqjmjOnaPP6UXgejrEpk4KP3_6mRlNAVsG1pGUAizDnHX6MB5F- -ligYJR7rT-AD3TFKE2QOnfB1xlL1xElMgLE2YNpwNa-5-qY8pMjQcnfHJL3Bc-VNbtxk0RgrBHFYdHh4BDDBY6YwOGlhxOZAUu54SfFfFZ1qblk-7Esvzx6s4mFo5VlEr-EHsOdj13SLWsjAh3qsnYdhOn-AsFGnkZOEqdRxFiZ-f94HSxqwaSzwVAlwl7Q2Fqsmg2DWFEsZT5fOrJ2BLrVYBcza2FiUyhlQH4vNcLGOtgPgMhijk2dBJWEg1Q2sqRmMWYLeFExs16-MM3SHLlWlGpLf3Up6ZLjXDwE6Lpq4WWE3s4k-eaI5ceXxmoNdE6uOzoFaW168qlV00pWLO1-2WoQ0CUk83YAtgMHLw5-CpHeW32id-4PzBxENi6e5K683_9NiEpTY92XOYzmvdH6mvjHVXCF8CfJFZov6GrFD6U4vFVuqJBcHdwMzUZelp__Jh_34mEC2EhQuMn6srdEqgfBtMi6EG6r0X-N_mcDyBLnOohjZzTDPPn2vRQb2wD_2G4JRmdSWv_4bEHNnPAbj2XVjvHnAhsuOp6_7aGYN7zN-fMuP2SjojVjP9piBBQrunN21rsfDC43NNz3zK9P-eZJa_uV]--></g></svg>